<svg width="44" height="44" viewBox="0 0 99 99" fill="none" xmlns="http://www.w3.org/2000/svg">
    <path d="M98.6593 24.5814C98.6593 11.0055 87.6537 0 74.0775 0V24.5814V49.1627C87.6537 49.1627 98.6593 38.1572 98.6593 24.5814Z" fill="black"/>
    <path d="M98.6587 73.7435C98.6587 60.1676 87.6531 49.1627 74.0775 49.1627V73.7435H98.6587Z" fill="#00ACEB"/>
    <path d="M74.0775 24.5814L24.9145 24.5815V73.7438L74.0775 73.7435V24.5814Z" fill="black"/>
    <path d="M24.9172 0C11.3413 0 0.335938 11.0055 0.335938 24.5814H24.9172H49.4986C49.4986 11.0055 38.4931 0 24.9172 0Z" fill="black"/>
    <path fill-rule="evenodd" clip-rule="evenodd" d="M49.4959 24.5815C49.4959 38.1573 38.4904 49.1628 24.9145 49.1628V24.5815H49.4959Z" fill="white"/>
    <path d="M0.335938 24.5814C0.335938 38.1572 11.3413 49.1628 24.9172 49.1628L24.9172 24.5814H0.335938Z" fill="#00ACEB"/>
    <path d="M0.335938 73.7435C0.335938 87.3194 11.3414 98.3248 24.9173 98.3248L24.9172 49.1628C11.3413 49.1628 0.335938 60.1676 0.335938 73.7435Z" fill="black"/>
    <path fill-rule="evenodd" clip-rule="evenodd" d="M24.9145 49.1628C38.4904 49.1628 49.4957 60.1676 49.4957 73.7435L24.9145 73.7438V49.1628Z" fill="white"/>
    <path d="M24.9145 98.325C38.4904 98.325 49.4957 87.3194 49.4957 73.7435L24.9145 73.7438V98.325Z" fill="#00ACEB"/>
    <path fill-rule="evenodd" clip-rule="evenodd" d="M74.0802 49.1628C60.5043 49.1628 49.4986 38.1572 49.4986 24.5814L74.0802 24.5815V49.1628Z" fill="white"/>
    <path d="M74.0802 0C60.5043 0 49.4986 11.0055 49.4986 24.5814L74.0802 24.5815V0Z" fill="#00ACEB"/>
    <path d="M74.0803 98.325C87.656 98.325 98.6616 87.3197 98.6616 73.7437H74.0803H49.4989C49.4989 87.3197 60.5044 98.325 74.0803 98.325Z" fill="black"/>
    <path fill-rule="evenodd" clip-rule="evenodd" d="M49.4989 73.7437C49.4989 60.1678 60.5043 49.1628 74.0802 49.1628L74.0803 73.7437H49.4989Z" fill="white"/>
    <path d="M26.0812 71.0036H72.9347L69.4312 64.9354H29.5847L26.0812 71.0036Z" fill="#D4A53D"/>
    <path d="M67.912 62.3041H31.1039L33.9151 57.4349H65.1008L67.912 62.3041Z" fill="#D4A53D"/>
    <path d="M63.5746 54.7915H35.4413L38.1306 50.1334H60.8853L63.5746 54.7915Z" fill="#D4A53D"/>
    <path d="M59.4448 47.6384H39.5711L42.1359 43.196H56.88L59.4448 47.6384Z" fill="#D4A53D"/>
    <path d="M55.7425 33.7272C55.7425 37.1686 52.9527 39.9584 49.5114 39.9584C46.07 39.9584 43.2803 37.1686 43.2803 33.7272C43.2803 30.2859 46.07 27.4961 49.5114 27.4961C52.9527 27.4961 55.7425 30.2859 55.7425 33.7272ZM46.1842 33.7272C46.1842 35.5648 47.6738 37.0544 49.5114 37.0544C51.3489 37.0544 52.8385 35.5648 52.8385 33.7272C52.8385 31.8897 51.3489 30.4001 49.5114 30.4001C47.6738 30.4001 46.1842 31.8897 46.1842 33.7272Z" fill="#D4A53D"/>
</svg>